<svg width="166" height="166" viewBox="0 0 166 166" fill="none" xmlns="http://www.w3.org/2000/svg">
<path d="M111.687 137.63C112.392 136.924 112.828 135.949 112.828 134.875C112.828 133.801 112.392 132.826 111.687 132.12L62.5663 83L111.687 33.8744C112.366 33.174 112.787 32.2197 112.787 31.1613C112.787 29.0137 111.044 27.2707 108.896 27.2707C107.843 27.2707 106.883 27.691 106.183 28.3757L54.3026 80.2507C53.6023 80.956 53.1666 81.9263 53.1666 83C53.1666 84.0737 53.6023 85.044 54.3026 85.7494L106.183 137.63C106.888 138.33 107.858 138.76 108.932 138.76C110.006 138.76 110.981 138.33 111.687 137.63Z" fill="white"/>
</svg>
