<svg width="166" height="166" viewBox="0 0 166 166" fill="none" xmlns="http://www.w3.org/2000/svg">
<path d="M54.313 28.3703C53.6076 29.076 53.1719 30.0513 53.1719 31.125C53.1719 32.1987 53.6076 33.174 54.313 33.8796L103.434 83L54.313 132.126C53.6336 132.826 53.2133 133.78 53.2133 134.839C53.2133 136.986 54.9563 138.729 57.104 138.729C58.157 138.729 59.1167 138.309 59.817 137.624L111.697 85.7493C112.398 85.044 112.833 84.0737 112.833 83C112.833 81.9263 112.398 80.956 111.697 80.2506L59.817 28.3703C59.1116 27.67 58.1416 27.2396 57.0677 27.2396C55.994 27.2396 55.0186 27.67 54.313 28.3703Z" fill="white"/>
</svg>
