<svg width="658" height="658" viewBox="0 0 658 658" fill="none" xmlns="http://www.w3.org/2000/svg">
<path d="M112.456 442.711C115.253 445.507 119.119 447.234 123.375 447.234C127.631 447.234 131.497 445.507 134.294 442.711L329 248.004L523.727 442.711C526.503 445.404 530.286 447.07 534.481 447.07C542.994 447.07 549.903 440.161 549.903 431.648C549.903 427.474 548.237 423.67 545.523 420.894L339.898 215.248C337.102 212.472 333.256 210.745 329 210.745C324.744 210.745 320.898 212.472 318.102 215.248L112.456 420.894C109.68 423.69 107.974 427.535 107.974 431.792C107.974 436.048 109.68 439.914 112.456 442.711Z" fill="black"/>
</svg>
