<svg width="797" height="208" viewBox="0 0 797 208" fill="none" xmlns="http://www.w3.org/2000/svg">
<rect width="796.818" height="207.636" fill="#8A2BE2"/>
<rect x="10.2452" y="78.7452" width="137" height="137" rx="37.5" transform="rotate(-30 10.2452 78.7452)" stroke="white" stroke-width="15"/>
<circle cx="82.0001" cy="115.476" r="8.74273" transform="rotate(-30 82.0001 115.476)" fill="white" stroke="white"/>
<circle cx="100.023" cy="145.933" r="8.74273" transform="rotate(-30 100.023 145.933)" fill="white" stroke="white"/>
<circle cx="65.3632" cy="85.8994" r="8.74273" transform="rotate(-30 65.3632 85.8994)" fill="white" stroke="white"/>
<circle cx="124.517" cy="90.5208" r="8.74273" transform="rotate(-30 124.517 90.5208)" fill="white" stroke="white"/>
<circle cx="141.616" cy="120.977" r="8.74273" transform="rotate(-30 141.616 120.977)" fill="white" stroke="white"/>
<circle cx="106.955" cy="60.9441" r="8.74273" transform="rotate(-30 106.955 60.9441)" fill="white" stroke="white"/>
<mask id="path-8-outside-1_44_2" maskUnits="userSpaceOnUse" x="232.818" y="74.8179" width="561" height="66" fill="black">
<rect fill="white" x="232.818" y="74.8179" width="561" height="66"/>
<path d="M234.358 138.818V77.6179H253.348C260.368 77.6179 265.768 79.7479 269.548 84.0079C273.328 88.2079 275.218 94.0279 275.218 101.468V114.878C275.218 122.378 273.328 128.258 269.548 132.518C265.768 136.718 260.368 138.818 253.348 138.818H234.358ZM253.168 84.9979H242.188V131.528H253.168C262.468 131.528 267.118 125.978 267.118 114.878V101.468C267.118 90.4879 262.468 84.9979 253.168 84.9979ZM299.493 138.818H291.663V77.6179H299.493V138.818ZM323.955 114.968C323.955 120.608 325.065 124.958 327.285 128.018C329.565 131.018 333.045 132.518 337.725 132.518C339.765 132.518 341.775 132.278 343.755 131.798C345.735 131.318 348.105 130.478 350.865 129.278L353.475 135.938C350.535 137.258 347.745 138.218 345.105 138.818C342.465 139.418 339.915 139.718 337.455 139.718C330.375 139.718 325.005 137.498 321.345 133.058C317.685 128.618 315.855 122.588 315.855 114.968V101.468C315.855 93.8479 317.685 87.8179 321.345 83.3779C325.005 78.9379 330.375 76.7179 337.455 76.7179C339.915 76.7179 342.465 77.0179 345.105 77.6179C347.805 78.2179 350.535 79.1779 353.295 80.4979L350.775 87.2479C345.915 85.0879 341.565 84.0079 337.725 84.0079C333.045 84.0079 329.565 85.5079 327.285 88.5079C325.065 91.5079 323.955 95.8279 323.955 101.468V114.968ZM400.482 131.528V138.818H366.282V77.6179H399.582V84.9979H374.112V104.168H396.882V111.548H374.112V131.528H400.482ZM426.604 132.698C430.384 132.698 433.294 131.888 435.334 130.268C437.374 128.588 438.394 126.158 438.394 122.978C438.394 120.338 437.674 118.118 436.234 116.318C434.854 114.518 432.574 113.138 429.394 112.178L422.104 110.018C417.544 108.638 414.184 106.568 412.024 103.808C409.864 100.988 408.784 97.5379 408.784 93.4579C408.784 90.3379 409.384 87.5179 410.584 84.9979C411.844 82.4779 413.824 80.4679 416.524 78.9679C419.284 77.4679 422.884 76.7179 427.324 76.7179C430.024 76.7179 432.814 77.0479 435.694 77.7079C438.574 78.3079 441.484 79.2979 444.424 80.6779L441.904 87.4279C439.024 86.1679 436.414 85.2679 434.074 84.7279C431.794 84.1279 429.604 83.8279 427.504 83.8279C424.084 83.8279 421.414 84.5479 419.494 85.9879C417.634 87.3679 416.704 89.6779 416.704 92.9179C416.704 95.2579 417.334 97.2379 418.594 98.8579C419.854 100.418 422.104 101.708 425.344 102.728L432.634 104.888C441.754 107.588 446.314 113.408 446.314 122.348C446.314 127.508 444.754 131.708 441.634 134.948C438.514 138.128 433.504 139.718 426.604 139.718C423.784 139.718 420.784 139.388 417.604 138.728C414.484 138.008 411.244 136.898 407.884 135.398L410.314 128.738C413.494 130.178 416.344 131.198 418.864 131.798C421.444 132.398 424.024 132.698 426.604 132.698ZM490.741 132.968C493.621 132.968 495.991 132.278 497.851 130.898C499.711 129.458 500.851 127.568 501.271 125.228C501.691 122.888 501.151 120.308 499.651 117.488L505.681 113.888L520.171 138.818H511.891L506.131 128.378C505.651 131.618 504.031 134.318 501.271 136.478C498.511 138.638 494.851 139.718 490.291 139.718C484.951 139.718 480.811 138.278 477.871 135.398C474.931 132.458 473.461 128.648 473.461 123.968C473.461 120.188 474.451 116.948 476.431 114.248C478.471 111.488 481.501 108.818 485.521 106.238C479.821 101.438 476.971 96.2779 476.971 90.7579C476.971 86.7979 478.321 83.4679 481.021 80.7679C483.721 78.0679 487.591 76.7179 492.631 76.7179C497.311 76.7179 501.031 77.9779 503.791 80.4979C506.551 82.9579 507.931 86.4679 507.931 91.0279C507.931 95.1079 506.851 98.4079 504.691 100.928C502.531 103.388 499.741 105.668 496.321 107.768L489.931 111.638C486.631 113.618 484.321 115.568 483.001 117.488C481.681 119.348 481.021 121.448 481.021 123.788C481.021 126.968 481.951 129.308 483.811 130.808C485.671 132.248 487.981 132.968 490.741 132.968ZM484.351 90.9379C484.351 92.6179 484.831 94.4779 485.791 96.5179C486.751 98.4979 488.431 100.658 490.831 102.998L492.721 101.828C495.361 100.148 497.311 98.5579 498.571 97.0579C499.831 95.4979 500.461 93.5179 500.461 91.1179C500.461 88.4179 499.711 86.4679 498.211 85.2679C496.771 84.0079 494.941 83.3779 492.721 83.3779C490.321 83.3779 488.311 84.0079 486.691 85.2679C485.131 86.5279 484.351 88.4179 484.351 90.9379ZM554.492 114.968C554.492 120.608 555.602 124.958 557.822 128.018C560.102 131.018 563.582 132.518 568.262 132.518C570.302 132.518 572.312 132.278 574.292 131.798C576.272 131.318 578.642 130.478 581.402 129.278L584.012 135.938C581.072 137.258 578.282 138.218 575.642 138.818C573.002 139.418 570.452 139.718 567.992 139.718C560.912 139.718 555.542 137.498 551.882 133.058C548.222 128.618 546.392 122.588 546.392 114.968V101.468C546.392 93.8479 548.222 87.8179 551.882 83.3779C555.542 78.9379 560.912 76.7179 567.992 76.7179C570.452 76.7179 573.002 77.0179 575.642 77.6179C578.342 78.2179 581.072 79.1779 583.832 80.4979L581.312 87.2479C576.452 85.0879 572.102 84.0079 568.262 84.0079C563.582 84.0079 560.102 85.5079 557.822 88.5079C555.602 91.5079 554.492 95.8279 554.492 101.468V114.968ZM629.219 138.818L624.629 124.598H601.409L596.819 138.818H589.169L609.509 77.6179H616.889L637.319 138.818H629.219ZM607.079 106.958L603.659 117.488H622.289L618.869 106.958L613.019 88.0579L607.079 106.958ZM656.592 114.878V138.818H648.762V77.6179H667.932C673.692 77.6179 678.132 79.1479 681.252 82.2079C684.432 85.2079 686.022 89.2279 686.022 94.2679V98.1379C686.022 101.738 685.182 104.858 683.502 107.498C681.882 110.138 679.542 112.088 676.482 113.348C679.062 117.488 681.462 121.688 683.682 125.948C685.902 130.208 687.942 134.498 689.802 138.818H680.802C677.382 130.658 673.392 122.678 668.832 114.878H656.592ZM667.932 84.8179H656.592V107.678H667.932C670.992 107.678 673.422 106.838 675.222 105.158C677.022 103.418 677.922 101.078 677.922 98.1379V94.2679C677.922 91.2679 677.022 88.9579 675.222 87.3379C673.422 85.6579 670.992 84.8179 667.932 84.8179ZM702.815 138.818V77.6179H721.805C728.825 77.6179 734.225 79.7479 738.005 84.0079C741.785 88.2079 743.675 94.0279 743.675 101.468V114.878C743.675 122.378 741.785 128.258 738.005 132.518C734.225 136.718 728.825 138.818 721.805 138.818H702.815ZM721.625 84.9979H710.645V131.528H721.625C730.925 131.528 735.575 125.978 735.575 114.878V101.468C735.575 90.4879 730.925 84.9979 721.625 84.9979ZM772.63 132.698C776.41 132.698 779.32 131.888 781.36 130.268C783.4 128.588 784.42 126.158 784.42 122.978C784.42 120.338 783.7 118.118 782.26 116.318C780.88 114.518 778.6 113.138 775.42 112.178L768.13 110.018C763.57 108.638 760.21 106.568 758.05 103.808C755.89 100.988 754.81 97.5379 754.81 93.4579C754.81 90.3379 755.41 87.5179 756.61 84.9979C757.87 82.4779 759.85 80.4679 762.55 78.9679C765.31 77.4679 768.91 76.7179 773.35 76.7179C776.05 76.7179 778.84 77.0479 781.72 77.7079C784.6 78.3079 787.51 79.2979 790.45 80.6779L787.93 87.4279C785.05 86.1679 782.44 85.2679 780.1 84.7279C777.82 84.1279 775.63 83.8279 773.53 83.8279C770.11 83.8279 767.44 84.5479 765.52 85.9879C763.66 87.3679 762.73 89.6779 762.73 92.9179C762.73 95.2579 763.36 97.2379 764.62 98.8579C765.88 100.418 768.13 101.708 771.37 102.728L778.66 104.888C787.78 107.588 792.34 113.408 792.34 122.348C792.34 127.508 790.78 131.708 787.66 134.948C784.54 138.128 779.53 139.718 772.63 139.718C769.81 139.718 766.81 139.388 763.63 138.728C760.51 138.008 757.27 136.898 753.91 135.398L756.34 128.738C759.52 130.178 762.37 131.198 764.89 131.798C767.47 132.398 770.05 132.698 772.63 132.698Z"/>
</mask>
<path d="M234.358 138.818V77.6179H253.348C260.368 77.6179 265.768 79.7479 269.548 84.0079C273.328 88.2079 275.218 94.0279 275.218 101.468V114.878C275.218 122.378 273.328 128.258 269.548 132.518C265.768 136.718 260.368 138.818 253.348 138.818H234.358ZM253.168 84.9979H242.188V131.528H253.168C262.468 131.528 267.118 125.978 267.118 114.878V101.468C267.118 90.4879 262.468 84.9979 253.168 84.9979ZM299.493 138.818H291.663V77.6179H299.493V138.818ZM323.955 114.968C323.955 120.608 325.065 124.958 327.285 128.018C329.565 131.018 333.045 132.518 337.725 132.518C339.765 132.518 341.775 132.278 343.755 131.798C345.735 131.318 348.105 130.478 350.865 129.278L353.475 135.938C350.535 137.258 347.745 138.218 345.105 138.818C342.465 139.418 339.915 139.718 337.455 139.718C330.375 139.718 325.005 137.498 321.345 133.058C317.685 128.618 315.855 122.588 315.855 114.968V101.468C315.855 93.8479 317.685 87.8179 321.345 83.3779C325.005 78.9379 330.375 76.7179 337.455 76.7179C339.915 76.7179 342.465 77.0179 345.105 77.6179C347.805 78.2179 350.535 79.1779 353.295 80.4979L350.775 87.2479C345.915 85.0879 341.565 84.0079 337.725 84.0079C333.045 84.0079 329.565 85.5079 327.285 88.5079C325.065 91.5079 323.955 95.8279 323.955 101.468V114.968ZM400.482 131.528V138.818H366.282V77.6179H399.582V84.9979H374.112V104.168H396.882V111.548H374.112V131.528H400.482ZM426.604 132.698C430.384 132.698 433.294 131.888 435.334 130.268C437.374 128.588 438.394 126.158 438.394 122.978C438.394 120.338 437.674 118.118 436.234 116.318C434.854 114.518 432.574 113.138 429.394 112.178L422.104 110.018C417.544 108.638 414.184 106.568 412.024 103.808C409.864 100.988 408.784 97.5379 408.784 93.4579C408.784 90.3379 409.384 87.5179 410.584 84.9979C411.844 82.4779 413.824 80.4679 416.524 78.9679C419.284 77.4679 422.884 76.7179 427.324 76.7179C430.024 76.7179 432.814 77.0479 435.694 77.7079C438.574 78.3079 441.484 79.2979 444.424 80.6779L441.904 87.4279C439.024 86.1679 436.414 85.2679 434.074 84.7279C431.794 84.1279 429.604 83.8279 427.504 83.8279C424.084 83.8279 421.414 84.5479 419.494 85.9879C417.634 87.3679 416.704 89.6779 416.704 92.9179C416.704 95.2579 417.334 97.2379 418.594 98.8579C419.854 100.418 422.104 101.708 425.344 102.728L432.634 104.888C441.754 107.588 446.314 113.408 446.314 122.348C446.314 127.508 444.754 131.708 441.634 134.948C438.514 138.128 433.504 139.718 426.604 139.718C423.784 139.718 420.784 139.388 417.604 138.728C414.484 138.008 411.244 136.898 407.884 135.398L410.314 128.738C413.494 130.178 416.344 131.198 418.864 131.798C421.444 132.398 424.024 132.698 426.604 132.698ZM490.741 132.968C493.621 132.968 495.991 132.278 497.851 130.898C499.711 129.458 500.851 127.568 501.271 125.228C501.691 122.888 501.151 120.308 499.651 117.488L505.681 113.888L520.171 138.818H511.891L506.131 128.378C505.651 131.618 504.031 134.318 501.271 136.478C498.511 138.638 494.851 139.718 490.291 139.718C484.951 139.718 480.811 138.278 477.871 135.398C474.931 132.458 473.461 128.648 473.461 123.968C473.461 120.188 474.451 116.948 476.431 114.248C478.471 111.488 481.501 108.818 485.521 106.238C479.821 101.438 476.971 96.2779 476.971 90.7579C476.971 86.7979 478.321 83.4679 481.021 80.7679C483.721 78.0679 487.591 76.7179 492.631 76.7179C497.311 76.7179 501.031 77.9779 503.791 80.4979C506.551 82.9579 507.931 86.4679 507.931 91.0279C507.931 95.1079 506.851 98.4079 504.691 100.928C502.531 103.388 499.741 105.668 496.321 107.768L489.931 111.638C486.631 113.618 484.321 115.568 483.001 117.488C481.681 119.348 481.021 121.448 481.021 123.788C481.021 126.968 481.951 129.308 483.811 130.808C485.671 132.248 487.981 132.968 490.741 132.968ZM484.351 90.9379C484.351 92.6179 484.831 94.4779 485.791 96.5179C486.751 98.4979 488.431 100.658 490.831 102.998L492.721 101.828C495.361 100.148 497.311 98.5579 498.571 97.0579C499.831 95.4979 500.461 93.5179 500.461 91.1179C500.461 88.4179 499.711 86.4679 498.211 85.2679C496.771 84.0079 494.941 83.3779 492.721 83.3779C490.321 83.3779 488.311 84.0079 486.691 85.2679C485.131 86.5279 484.351 88.4179 484.351 90.9379ZM554.492 114.968C554.492 120.608 555.602 124.958 557.822 128.018C560.102 131.018 563.582 132.518 568.262 132.518C570.302 132.518 572.312 132.278 574.292 131.798C576.272 131.318 578.642 130.478 581.402 129.278L584.012 135.938C581.072 137.258 578.282 138.218 575.642 138.818C573.002 139.418 570.452 139.718 567.992 139.718C560.912 139.718 555.542 137.498 551.882 133.058C548.222 128.618 546.392 122.588 546.392 114.968V101.468C546.392 93.8479 548.222 87.8179 551.882 83.3779C555.542 78.9379 560.912 76.7179 567.992 76.7179C570.452 76.7179 573.002 77.0179 575.642 77.6179C578.342 78.2179 581.072 79.1779 583.832 80.4979L581.312 87.2479C576.452 85.0879 572.102 84.0079 568.262 84.0079C563.582 84.0079 560.102 85.5079 557.822 88.5079C555.602 91.5079 554.492 95.8279 554.492 101.468V114.968ZM629.219 138.818L624.629 124.598H601.409L596.819 138.818H589.169L609.509 77.6179H616.889L637.319 138.818H629.219ZM607.079 106.958L603.659 117.488H622.289L618.869 106.958L613.019 88.0579L607.079 106.958ZM656.592 114.878V138.818H648.762V77.6179H667.932C673.692 77.6179 678.132 79.1479 681.252 82.2079C684.432 85.2079 686.022 89.2279 686.022 94.2679V98.1379C686.022 101.738 685.182 104.858 683.502 107.498C681.882 110.138 679.542 112.088 676.482 113.348C679.062 117.488 681.462 121.688 683.682 125.948C685.902 130.208 687.942 134.498 689.802 138.818H680.802C677.382 130.658 673.392 122.678 668.832 114.878H656.592ZM667.932 84.8179H656.592V107.678H667.932C670.992 107.678 673.422 106.838 675.222 105.158C677.022 103.418 677.922 101.078 677.922 98.1379V94.2679C677.922 91.2679 677.022 88.9579 675.222 87.3379C673.422 85.6579 670.992 84.8179 667.932 84.8179ZM702.815 138.818V77.6179H721.805C728.825 77.6179 734.225 79.7479 738.005 84.0079C741.785 88.2079 743.675 94.0279 743.675 101.468V114.878C743.675 122.378 741.785 128.258 738.005 132.518C734.225 136.718 728.825 138.818 721.805 138.818H702.815ZM721.625 84.9979H710.645V131.528H721.625C730.925 131.528 735.575 125.978 735.575 114.878V101.468C735.575 90.4879 730.925 84.9979 721.625 84.9979ZM772.63 132.698C776.41 132.698 779.32 131.888 781.36 130.268C783.4 128.588 784.42 126.158 784.42 122.978C784.42 120.338 783.7 118.118 782.26 116.318C780.88 114.518 778.6 113.138 775.42 112.178L768.13 110.018C763.57 108.638 760.21 106.568 758.05 103.808C755.89 100.988 754.81 97.5379 754.81 93.4579C754.81 90.3379 755.41 87.5179 756.61 84.9979C757.87 82.4779 759.85 80.4679 762.55 78.9679C765.31 77.4679 768.91 76.7179 773.35 76.7179C776.05 76.7179 778.84 77.0479 781.72 77.7079C784.6 78.3079 787.51 79.2979 790.45 80.6779L787.93 87.4279C785.05 86.1679 782.44 85.2679 780.1 84.7279C777.82 84.1279 775.63 83.8279 773.53 83.8279C770.11 83.8279 767.44 84.5479 765.52 85.9879C763.66 87.3679 762.73 89.6779 762.73 92.9179C762.73 95.2579 763.36 97.2379 764.62 98.8579C765.88 100.418 768.13 101.708 771.37 102.728L778.66 104.888C787.78 107.588 792.34 113.408 792.34 122.348C792.34 127.508 790.78 131.708 787.66 134.948C784.54 138.128 779.53 139.718 772.63 139.718C769.81 139.718 766.81 139.388 763.63 138.728C760.51 138.008 757.27 136.898 753.91 135.398L756.34 128.738C759.52 130.178 762.37 131.198 764.89 131.798C767.47 132.398 770.05 132.698 772.63 132.698Z" fill="white"/>
<path d="M234.358 138.818H233.358V139.818H234.358V138.818ZM234.358 77.6179V76.6179H233.358V77.6179H234.358ZM269.548 84.0079L268.8 84.6717L268.805 84.6769L269.548 84.0079ZM269.548 132.518L270.291 133.187L270.296 133.182L269.548 132.518ZM242.188 84.9979V83.9979H241.188V84.9979H242.188ZM242.188 131.528H241.188V132.528H242.188V131.528ZM234.358 138.818H235.358V77.6179H234.358H233.358V138.818H234.358ZM234.358 77.6179V78.6179H253.348V77.6179V76.6179H234.358V77.6179ZM253.348 77.6179V78.6179C260.154 78.6179 265.253 80.674 268.8 84.6716L269.548 84.0079L270.296 83.3442C266.283 78.8218 260.582 76.6179 253.348 76.6179V77.6179ZM269.548 84.0079L268.805 84.6769C272.373 88.6415 274.218 94.195 274.218 101.468H275.218H276.218C276.218 93.8608 274.283 87.7744 270.291 83.339L269.548 84.0079ZM275.218 101.468H274.218V114.878H275.218H276.218V101.468H275.218ZM275.218 114.878H274.218C274.218 122.212 272.372 127.829 268.8 131.854L269.548 132.518L270.296 133.182C274.284 128.687 276.218 122.544 276.218 114.878H275.218ZM269.548 132.518L268.805 131.849C265.259 135.789 260.158 137.818 253.348 137.818V138.818V139.818C260.577 139.818 266.277 137.647 270.291 133.187L269.548 132.518ZM253.348 138.818V137.818H234.358V138.818V139.818H253.348V138.818ZM253.168 84.9979V83.9979H242.188V84.9979V85.9979H253.168V84.9979ZM242.188 84.9979H241.188V131.528H242.188H243.188V84.9979H242.188ZM242.188 131.528V132.528H253.168V131.528V130.528H242.188V131.528ZM253.168 131.528V132.528C258.023 132.528 261.831 131.071 264.397 128.008C266.935 124.978 268.118 120.543 268.118 114.878H267.118H266.118C266.118 120.313 264.976 124.202 262.864 126.723C260.78 129.21 257.613 130.528 253.168 130.528V131.528ZM267.118 114.878H268.118V101.468H267.118H266.118V114.878H267.118ZM267.118 101.468H268.118C268.118 95.8606 266.934 91.4686 264.394 88.4691C261.826 85.4378 258.02 83.9979 253.168 83.9979V84.9979V85.9979C257.616 85.9979 260.785 87.3031 262.867 89.7617C264.977 92.2522 266.118 96.0953 266.118 101.468H267.118ZM299.493 138.818V139.818H300.493V138.818H299.493ZM291.663 138.818H290.663V139.818H291.663V138.818ZM291.663 77.6179V76.6179H290.663V77.6179H291.663ZM299.493 77.6179H300.493V76.6179H299.493V77.6179ZM299.493 138.818V137.818H291.663V138.818V139.818H299.493V138.818ZM291.663 138.818H292.663V77.6179H291.663H290.663V138.818H291.663ZM291.663 77.6179V78.6179H299.493V77.6179V76.6179H291.663V77.6179ZM299.493 77.6179H298.493V138.818H299.493H300.493V77.6179H299.493ZM327.285 128.018L326.476 128.605L326.482 128.614L326.489 128.623L327.285 128.018ZM350.865 129.278L351.796 128.913L351.418 127.947L350.466 128.361L350.865 129.278ZM353.475 135.938L353.885 136.85L354.754 136.46L354.406 135.573L353.475 135.938ZM345.105 138.818L344.883 137.843L344.883 137.843L345.105 138.818ZM321.345 133.058L320.573 133.694L320.573 133.694L321.345 133.058ZM345.105 77.6179L344.883 78.5931L344.888 78.5941L345.105 77.6179ZM353.295 80.4979L354.232 80.8477L354.552 79.9905L353.726 79.5958L353.295 80.4979ZM350.775 87.2479L350.369 88.1617L351.34 88.5934L351.712 87.5977L350.775 87.2479ZM327.285 88.5079L326.489 87.9028L326.481 87.9131L327.285 88.5079ZM323.955 114.968H322.955C322.955 120.72 324.084 125.309 326.476 128.605L327.285 128.018L328.094 127.431C326.046 124.607 324.955 120.495 324.955 114.968H323.955ZM327.285 128.018L326.489 128.623C329.004 131.932 332.816 133.518 337.725 133.518V132.518V131.518C333.274 131.518 330.127 130.104 328.081 127.413L327.285 128.018ZM337.725 132.518V133.518C339.844 133.518 341.933 133.269 343.991 132.77L343.755 131.798L343.519 130.826C341.617 131.287 339.686 131.518 337.725 131.518V132.518ZM343.755 131.798L343.991 132.77C346.046 132.272 348.473 131.408 351.264 130.195L350.865 129.278L350.466 128.361C347.737 129.548 345.424 130.364 343.519 130.826L343.755 131.798ZM350.865 129.278L349.934 129.643L352.544 136.303L353.475 135.938L354.406 135.573L351.796 128.913L350.865 129.278ZM353.475 135.938L353.065 135.026C350.175 136.323 347.448 137.26 344.883 137.843L345.105 138.818L345.327 139.793C348.042 139.176 350.895 138.192 353.885 136.85L353.475 135.938ZM345.105 138.818L344.883 137.843C342.309 138.428 339.833 138.718 337.455 138.718V139.718V140.718C339.997 140.718 342.621 140.408 345.327 139.793L345.105 138.818ZM337.455 139.718V138.718C330.598 138.718 325.543 136.579 322.117 132.422L321.345 133.058L320.573 133.694C324.467 138.417 330.152 140.718 337.455 140.718V139.718ZM321.345 133.058L322.117 132.422C318.646 128.212 316.855 122.432 316.855 114.968H315.855H314.855C314.855 122.744 316.724 129.024 320.573 133.694L321.345 133.058ZM315.855 114.968H316.855V101.468H315.855H314.855V114.968H315.855ZM315.855 101.468H316.855C316.855 94.0042 318.646 88.224 322.117 84.014L321.345 83.3779L320.573 82.7419C316.724 87.4118 314.855 93.6916 314.855 101.468H315.855ZM321.345 83.3779L322.117 84.014C325.543 79.8569 330.598 77.7179 337.455 77.7179V76.7179V75.7179C330.152 75.7179 324.467 78.0189 320.573 82.7419L321.345 83.3779ZM337.455 76.7179V77.7179C339.833 77.7179 342.309 78.008 344.883 78.5931L345.105 77.6179L345.327 76.6428C342.621 76.0279 339.997 75.7179 337.455 75.7179V76.7179ZM345.105 77.6179L344.888 78.5941C347.507 79.176 350.165 80.1094 352.864 81.4001L353.295 80.4979L353.726 79.5958C350.905 78.2465 348.103 77.2598 345.322 76.6417L345.105 77.6179ZM353.295 80.4979L352.358 80.1482L349.838 86.8982L350.775 87.2479L351.712 87.5977L354.232 80.8477L353.295 80.4979ZM350.775 87.2479L351.181 86.3341C346.239 84.1378 341.748 83.0079 337.725 83.0079V84.0079V85.0079C341.382 85.0079 345.591 86.0381 350.369 88.1617L350.775 87.2479ZM337.725 84.0079V83.0079C332.816 83.0079 329.004 84.5941 326.489 87.9028L327.285 88.5079L328.081 89.113C330.127 86.4218 333.274 85.0079 337.725 85.0079V84.0079ZM327.285 88.5079L326.481 87.9131C324.084 91.1532 322.955 95.7174 322.955 101.468H323.955H324.955C324.955 95.9385 326.047 91.8627 328.089 89.1028L327.285 88.5079ZM323.955 101.468H322.955V114.968H323.955H324.955V101.468H323.955ZM400.482 131.528H401.482V130.528H400.482V131.528ZM400.482 138.818V139.818H401.482V138.818H400.482ZM366.282 138.818H365.282V139.818H366.282V138.818ZM366.282 77.6179V76.6179H365.282V77.6179H366.282ZM399.582 77.6179H400.582V76.6179H399.582V77.6179ZM399.582 84.9979V85.9979H400.582V84.9979H399.582ZM374.112 84.9979V83.9979H373.112V84.9979H374.112ZM374.112 104.168H373.112V105.168H374.112V104.168ZM396.882 104.168H397.882V103.168H396.882V104.168ZM396.882 111.548V112.548H397.882V111.548H396.882ZM374.112 111.548V110.548H373.112V111.548H374.112ZM374.112 131.528H373.112V132.528H374.112V131.528ZM400.482 131.528H399.482V138.818H400.482H401.482V131.528H400.482ZM400.482 138.818V137.818H366.282V138.818V139.818H400.482V138.818ZM366.282 138.818H367.282V77.6179H366.282H365.282V138.818H366.282ZM366.282 77.6179V78.6179H399.582V77.6179V76.6179H366.282V77.6179ZM399.582 77.6179H398.582V84.9979H399.582H400.582V77.6179H399.582ZM399.582 84.9979V83.9979H374.112V84.9979V85.9979H399.582V84.9979ZM374.112 84.9979H373.112V104.168H374.112H375.112V84.9979H374.112ZM374.112 104.168V105.168H396.882V104.168V103.168H374.112V104.168ZM396.882 104.168H395.882V111.548H396.882H397.882V104.168H396.882ZM396.882 111.548V110.548H374.112V111.548V112.548H396.882V111.548ZM374.112 111.548H373.112V131.528H374.112H375.112V111.548H374.112ZM374.112 131.528V132.528H400.482V131.528V130.528H374.112V131.528ZM435.334 130.268L435.956 131.051L435.963 131.046L435.97 131.04L435.334 130.268ZM436.234 116.318L435.441 116.926L435.447 116.935L435.453 116.943L436.234 116.318ZM429.394 112.178L429.683 111.221L429.678 111.219L429.394 112.178ZM422.104 110.018L421.815 110.975L421.82 110.977L422.104 110.018ZM412.024 103.808L411.23 104.416L411.237 104.424L412.024 103.808ZM410.584 84.9979L409.69 84.5507L409.686 84.5593L409.681 84.568L410.584 84.9979ZM416.524 78.9679L416.047 78.0893L416.039 78.0938L416.524 78.9679ZM435.694 77.7079L435.471 78.6827L435.481 78.6849L435.49 78.6869L435.694 77.7079ZM444.424 80.6779L445.361 81.0277L445.683 80.1643L444.849 79.7727L444.424 80.6779ZM441.904 87.4279L441.503 88.3441L442.472 88.7676L442.841 87.7777L441.904 87.4279ZM434.074 84.7279L433.82 85.695L433.835 85.6989L433.849 85.7023L434.074 84.7279ZM419.494 85.9879L420.09 86.791L420.094 86.7879L419.494 85.9879ZM418.594 98.8579L417.805 99.4719L417.811 99.4791L417.816 99.4863L418.594 98.8579ZM425.344 102.728L425.044 103.682L425.052 103.684L425.06 103.687L425.344 102.728ZM432.634 104.888L432.35 105.847L432.35 105.847L432.634 104.888ZM441.634 134.948L442.348 135.648L442.355 135.642L441.634 134.948ZM417.604 138.728L417.379 139.702L417.39 139.705L417.401 139.707L417.604 138.728ZM407.884 135.398L406.945 135.055L406.625 135.931L407.477 136.311L407.884 135.398ZM410.314 128.738L410.727 127.827L409.744 127.382L409.375 128.395L410.314 128.738ZM418.864 131.798L418.633 132.771L418.638 132.772L418.864 131.798ZM426.604 132.698V133.698C430.511 133.698 433.675 132.863 435.956 131.051L435.334 130.268L434.712 129.485C432.914 130.913 430.257 131.698 426.604 131.698V132.698ZM435.334 130.268L435.97 131.04C438.288 129.131 439.394 126.39 439.394 122.978H438.394H437.394C437.394 125.926 436.461 128.045 434.699 129.496L435.334 130.268ZM438.394 122.978H439.394C439.394 120.146 438.617 117.696 437.015 115.693L436.234 116.318L435.453 116.943C436.731 118.54 437.394 120.53 437.394 122.978H438.394ZM436.234 116.318L437.028 115.71C435.474 113.682 432.975 112.214 429.683 111.221L429.394 112.178L429.105 113.135C432.174 114.062 434.235 115.354 435.441 116.926L436.234 116.318ZM429.394 112.178L429.678 111.219L422.388 109.059L422.104 110.018L421.82 110.977L429.11 113.137L429.394 112.178ZM422.104 110.018L422.394 109.061C417.962 107.719 414.807 105.74 412.812 103.192L412.024 103.808L411.237 104.424C413.562 107.395 417.127 109.556 421.815 110.975L422.104 110.018ZM412.024 103.808L412.818 103.2C410.811 100.58 409.784 97.3522 409.784 93.4579H408.784H407.784C407.784 97.7236 408.917 101.396 411.23 104.416L412.024 103.808ZM408.784 93.4579H409.784C409.784 90.469 410.358 87.7985 411.487 85.4279L410.584 84.9979L409.681 84.568C408.41 87.2374 407.784 90.2068 407.784 93.4579H408.784ZM410.584 84.9979L411.479 85.4451C412.64 83.1227 414.468 81.2541 417.01 79.8421L416.524 78.9679L416.039 78.0938C413.18 79.6818 411.049 81.8331 409.69 84.5507L410.584 84.9979ZM416.524 78.9679L417.002 79.8466C419.567 78.4523 422.986 77.7179 427.324 77.7179V76.7179V75.7179C422.782 75.7179 419.001 76.4835 416.047 78.0893L416.524 78.9679ZM427.324 76.7179V77.7179C429.942 77.7179 432.657 78.0379 435.471 78.6827L435.694 77.7079L435.918 76.7332C432.971 76.058 430.106 75.7179 427.324 75.7179V76.7179ZM435.694 77.7079L435.49 78.6869C438.287 79.2695 441.123 80.2329 443.999 81.5832L444.424 80.6779L444.849 79.7727C441.846 78.363 438.862 77.3464 435.898 76.7289L435.694 77.7079ZM444.424 80.6779L443.487 80.3282L440.967 87.0782L441.904 87.4279L442.841 87.7777L445.361 81.0277L444.424 80.6779ZM441.904 87.4279L442.305 86.5118C439.385 85.2341 436.715 84.311 434.299 83.7535L434.074 84.7279L433.849 85.7023C436.114 86.2249 438.664 87.1018 441.503 88.3441L441.904 87.4279ZM434.074 84.7279L434.329 83.7609C431.976 83.1416 429.7 82.8279 427.504 82.8279V83.8279V84.8279C429.509 84.8279 431.613 85.1142 433.82 85.695L434.074 84.7279ZM427.504 83.8279V82.8279C423.957 82.8279 421.047 83.5732 418.894 85.1879L419.494 85.9879L420.094 86.7879C421.781 85.5226 424.211 84.8279 427.504 84.8279V83.8279ZM419.494 85.9879L418.898 85.1848C416.692 86.8215 415.704 89.4962 415.704 92.9179H416.704H417.704C417.704 89.8597 418.576 87.9144 420.09 86.791L419.494 85.9879ZM416.704 92.9179H415.704C415.704 95.4476 416.39 97.6522 417.805 99.4719L418.594 98.8579L419.384 98.244C418.279 96.8237 417.704 95.0683 417.704 92.9179H416.704ZM418.594 98.8579L417.816 99.4863C419.259 101.273 421.732 102.639 425.044 103.682L425.344 102.728L425.645 101.774C422.476 100.777 420.449 99.5632 419.372 98.2296L418.594 98.8579ZM425.344 102.728L425.06 103.687L432.35 105.847L432.634 104.888L432.918 103.929L425.628 101.769L425.344 102.728ZM432.634 104.888L432.35 105.847C436.768 107.155 439.988 109.19 442.107 111.895C444.222 114.594 445.314 118.053 445.314 122.348H446.314H447.314C447.314 117.703 446.126 113.782 443.681 110.661C441.241 107.546 437.62 105.321 432.918 103.929L432.634 104.888ZM446.314 122.348H445.314C445.314 127.29 443.828 131.228 440.914 134.254L441.634 134.948L442.355 135.642C445.681 132.188 447.314 127.726 447.314 122.348H446.314ZM441.634 134.948L440.92 134.248C438.07 137.153 433.38 138.718 426.604 138.718V139.718V140.718C433.629 140.718 438.959 139.103 442.348 135.648L441.634 134.948ZM426.604 139.718V138.718C423.862 138.718 420.93 138.397 417.807 137.749L417.604 138.728L417.401 139.707C420.638 140.379 423.707 140.718 426.604 140.718V139.718ZM417.604 138.728L417.829 137.754C414.78 137.05 411.602 135.962 408.292 134.485L407.884 135.398L407.477 136.311C410.887 137.834 414.188 138.966 417.379 139.702L417.604 138.728ZM407.884 135.398L408.824 135.741L411.254 129.081L410.314 128.738L409.375 128.395L406.945 135.055L407.884 135.398ZM410.314 128.738L409.902 129.649C413.121 131.107 416.033 132.152 418.633 132.771L418.864 131.798L419.096 130.825C416.655 130.244 413.867 129.249 410.727 127.827L410.314 128.738ZM418.864 131.798L418.638 132.772C421.29 133.389 423.946 133.698 426.604 133.698V132.698V131.698C424.103 131.698 421.598 131.407 419.091 130.824L418.864 131.798ZM497.851 130.898L498.447 131.701L498.455 131.695L498.463 131.689L497.851 130.898ZM499.651 117.488L499.139 116.629L498.321 117.117L498.768 117.958L499.651 117.488ZM505.681 113.888L506.546 113.385L506.037 112.511L505.169 113.029L505.681 113.888ZM520.171 138.818V139.818H521.909L521.036 138.315L520.171 138.818ZM511.891 138.818L511.016 139.301L511.301 139.818H511.891V138.818ZM506.131 128.378L507.007 127.895L505.576 125.302L505.142 128.231L506.131 128.378ZM501.271 136.478L501.888 137.265L501.271 136.478ZM477.871 135.398L477.164 136.105L477.171 136.112L477.871 135.398ZM476.431 114.248L475.627 113.654L475.625 113.657L476.431 114.248ZM485.521 106.238L486.061 107.08L487.203 106.347L486.165 105.473L485.521 106.238ZM503.791 80.4979L503.117 81.2365L503.126 81.2444L503.791 80.4979ZM504.691 100.928L505.443 101.588L505.45 101.579L504.691 100.928ZM496.321 107.768L496.839 108.623L496.844 108.62L496.321 107.768ZM489.931 111.638L490.446 112.495L490.449 112.493L489.931 111.638ZM483.001 117.488L483.817 118.067L483.821 118.061L483.825 118.054L483.001 117.488ZM483.811 130.808L483.183 131.586L483.191 131.593L483.199 131.599L483.811 130.808ZM485.791 96.5179L484.886 96.9438L484.891 96.9542L485.791 96.5179ZM490.831 102.998L490.133 103.714L490.693 104.26L491.358 103.848L490.831 102.998ZM492.721 101.828L493.248 102.678L493.258 102.672L492.721 101.828ZM498.571 97.0579L499.337 97.7011L499.343 97.6938L499.349 97.6863L498.571 97.0579ZM498.211 85.2679L497.553 86.0205L497.569 86.035L497.587 86.0488L498.211 85.2679ZM486.691 85.2679L486.077 84.4786L486.07 84.4842L486.063 84.49L486.691 85.2679ZM490.741 132.968V133.968C493.783 133.968 496.376 133.237 498.447 131.701L497.851 130.898L497.255 130.095C495.606 131.319 493.46 131.968 490.741 131.968V132.968ZM497.851 130.898L498.463 131.689C500.521 130.095 501.792 127.985 502.255 125.405L501.271 125.228L500.287 125.051C499.91 127.15 498.901 128.821 497.239 130.107L497.851 130.898ZM501.271 125.228L502.255 125.405C502.727 122.779 502.103 119.969 500.534 117.018L499.651 117.488L498.768 117.958C500.199 120.647 500.656 122.997 500.287 125.051L501.271 125.228ZM499.651 117.488L500.164 118.347L506.194 114.747L505.681 113.888L505.169 113.029L499.139 116.629L499.651 117.488ZM505.681 113.888L504.817 114.39L519.307 139.32L520.171 138.818L521.036 138.315L506.546 113.385L505.681 113.888ZM520.171 138.818V137.818H511.891V138.818V139.818H520.171V138.818ZM511.891 138.818L512.767 138.335L507.007 127.895L506.131 128.378L505.256 128.861L511.016 139.301L511.891 138.818ZM506.131 128.378L505.142 128.231C504.702 131.199 503.229 133.676 500.655 135.69L501.271 136.478L501.888 137.265C504.834 134.96 506.6 132.037 507.12 128.524L506.131 128.378ZM501.271 136.478L500.655 135.69C498.118 137.676 494.696 138.718 490.291 138.718V139.718V140.718C495.007 140.718 498.905 139.6 501.888 137.265L501.271 136.478ZM490.291 139.718V138.718C485.132 138.718 481.273 137.331 478.571 134.684L477.871 135.398L477.171 136.112C480.349 139.225 484.771 140.718 490.291 140.718V139.718ZM477.871 135.398L478.578 134.691C475.85 131.963 474.461 128.419 474.461 123.968H473.461H472.461C472.461 128.877 474.012 132.953 477.164 136.105L477.871 135.398ZM473.461 123.968H474.461C474.461 120.372 475.399 117.346 477.238 114.839L476.431 114.248L475.625 113.657C473.503 116.55 472.461 120.004 472.461 123.968H473.461ZM476.431 114.248L477.235 114.842C479.181 112.21 482.106 109.618 486.061 107.08L485.521 106.238L484.981 105.396C480.896 108.018 477.762 110.766 475.627 113.654L476.431 114.248ZM485.521 106.238L486.165 105.473C480.607 100.793 477.971 95.8889 477.971 90.7579H476.971H475.971C475.971 96.667 479.035 102.083 484.877 107.003L485.521 106.238ZM476.971 90.7579H477.971C477.971 87.0522 479.223 83.9799 481.728 81.475L481.021 80.7679L480.314 80.0608C477.419 82.956 475.971 86.5437 475.971 90.7579H476.971ZM481.021 80.7679L481.728 81.475C484.187 79.0168 487.768 77.7179 492.631 77.7179V76.7179V75.7179C487.414 75.7179 483.256 77.1191 480.314 80.0608L481.021 80.7679ZM492.631 76.7179V77.7179C497.127 77.7179 500.584 78.9242 503.117 81.2364L503.791 80.4979L504.465 79.7594C501.478 77.0317 497.495 75.7179 492.631 75.7179V76.7179ZM503.791 80.4979L503.126 81.2444C505.625 83.4716 506.931 86.6812 506.931 91.0279H507.931H508.931C508.931 86.2547 507.478 82.4443 504.457 79.7514L503.791 80.4979ZM507.931 91.0279H506.931C506.931 94.926 505.903 97.9773 503.932 100.277L504.691 100.928L505.45 101.579C507.799 98.8386 508.931 95.2898 508.931 91.0279H507.931ZM504.691 100.928L503.94 100.268C501.859 102.638 499.151 104.857 495.798 106.916L496.321 107.768L496.844 108.62C500.331 106.479 503.204 104.138 505.443 101.588L504.691 100.928ZM496.321 107.768L495.803 106.913L489.413 110.783L489.931 111.638L490.449 112.493L496.839 108.623L496.321 107.768ZM489.931 111.638L489.417 110.78C486.064 112.792 483.614 114.831 482.177 116.921L483.001 117.488L483.825 118.054C485.028 116.305 487.198 114.444 490.446 112.495L489.931 111.638ZM483.001 117.488L482.186 116.909C480.742 118.943 480.021 121.246 480.021 123.788H481.021H482.021C482.021 121.65 482.62 119.753 483.817 118.067L483.001 117.488ZM481.021 123.788H480.021C480.021 127.163 481.016 129.838 483.183 131.586L483.811 130.808L484.439 130.03C482.887 128.778 482.021 126.773 482.021 123.788H481.021ZM483.811 130.808L483.199 131.599C485.263 133.197 487.8 133.968 490.741 133.968V132.968V131.968C488.163 131.968 486.079 131.299 484.423 130.017L483.811 130.808ZM484.351 90.9379H483.351C483.351 92.8065 483.884 94.8138 484.886 96.9437L485.791 96.5179L486.696 96.0921C485.778 94.1421 485.351 92.4294 485.351 90.9379H484.351ZM485.791 96.5179L484.891 96.9542C485.921 99.078 487.689 101.331 490.133 103.714L490.831 102.998L491.529 102.282C489.173 99.9849 487.581 97.9178 486.691 96.0817L485.791 96.5179ZM490.831 102.998L491.358 103.848L493.248 102.678L492.721 101.828L492.195 100.978L490.305 102.148L490.831 102.998ZM492.721 101.828L493.258 102.672C495.939 100.965 497.984 99.3116 499.337 97.7011L498.571 97.0579L497.806 96.4147C496.638 97.8043 494.783 99.3305 492.184 100.984L492.721 101.828ZM498.571 97.0579L499.349 97.6863C500.78 95.9151 501.461 93.6998 501.461 91.1179H500.461H499.461C499.461 93.336 498.883 95.0807 497.793 96.4296L498.571 97.0579ZM500.461 91.1179H501.461C501.461 88.2437 500.659 85.9452 498.836 84.4871L498.211 85.2679L497.587 86.0488C498.764 86.9907 499.461 88.5922 499.461 91.1179H500.461ZM498.211 85.2679L498.87 84.5154C497.219 83.0707 495.142 82.3779 492.721 82.3779V83.3779V84.3779C494.74 84.3779 496.324 84.9452 497.553 86.0205L498.211 85.2679ZM492.721 83.3779V82.3779C490.138 82.3779 487.901 83.0598 486.077 84.4786L486.691 85.2679L487.305 86.0573C488.721 84.9561 490.504 84.3779 492.721 84.3779V83.3779ZM486.691 85.2679L486.063 84.49C484.209 85.9874 483.351 88.2005 483.351 90.9379H484.351H485.351C485.351 88.6353 486.053 87.0685 487.32 86.0459L486.691 85.2679ZM557.822 128.018L557.013 128.605L557.019 128.614L557.026 128.623L557.822 128.018ZM581.402 129.278L582.333 128.913L581.955 127.947L581.003 128.361L581.402 129.278ZM584.012 135.938L584.422 136.85L585.291 136.46L584.943 135.573L584.012 135.938ZM575.642 138.818L575.421 137.843L575.421 137.843L575.642 138.818ZM551.882 133.058L551.111 133.694L551.111 133.694L551.882 133.058ZM575.642 77.6179L575.421 78.5931L575.425 78.5941L575.642 77.6179ZM583.832 80.4979L584.769 80.8477L585.089 79.9905L584.264 79.5958L583.832 80.4979ZM581.312 87.2479L580.906 88.1617L581.877 88.5934L582.249 87.5977L581.312 87.2479ZM557.822 88.5079L557.026 87.9028L557.018 87.9131L557.822 88.5079ZM554.492 114.968H553.492C553.492 120.72 554.621 125.309 557.013 128.605L557.822 128.018L558.632 127.431C556.583 124.607 555.492 120.495 555.492 114.968H554.492ZM557.822 128.018L557.026 128.623C559.541 131.932 563.354 133.518 568.262 133.518V132.518V131.518C563.811 131.518 560.664 130.104 558.618 127.413L557.822 128.018ZM568.262 132.518V133.518C570.381 133.518 572.471 133.269 574.528 132.77L574.292 131.798L574.057 130.826C572.154 131.287 570.223 131.518 568.262 131.518V132.518ZM574.292 131.798L574.528 132.77C576.583 132.272 579.011 131.408 581.801 130.195L581.402 129.278L581.003 128.361C578.274 129.548 575.961 130.364 574.057 130.826L574.292 131.798ZM581.402 129.278L580.471 129.643L583.081 136.303L584.012 135.938L584.943 135.573L582.333 128.913L581.402 129.278ZM584.012 135.938L583.603 135.026C580.712 136.323 577.985 137.26 575.421 137.843L575.642 138.818L575.864 139.793C578.579 139.176 581.432 138.192 584.422 136.85L584.012 135.938ZM575.642 138.818L575.421 137.843C572.846 138.428 570.371 138.718 567.992 138.718V139.718V140.718C570.534 140.718 573.158 140.408 575.864 139.793L575.642 138.818ZM567.992 139.718V138.718C561.135 138.718 556.081 136.579 552.654 132.422L551.882 133.058L551.111 133.694C555.004 138.417 560.689 140.718 567.992 140.718V139.718ZM551.882 133.058L552.654 132.422C549.183 128.212 547.392 122.432 547.392 114.968H546.392H545.392C545.392 122.744 547.261 129.024 551.111 133.694L551.882 133.058ZM546.392 114.968H547.392V101.468H546.392H545.392V114.968H546.392ZM546.392 101.468H547.392C547.392 94.0042 549.183 88.224 552.654 84.014L551.882 83.3779L551.111 82.7419C547.261 87.4118 545.392 93.6916 545.392 101.468H546.392ZM551.882 83.3779L552.654 84.014C556.081 79.8569 561.135 77.7179 567.992 77.7179V76.7179V75.7179C560.689 75.7179 555.004 78.0189 551.111 82.7419L551.882 83.3779ZM567.992 76.7179V77.7179C570.371 77.7179 572.846 78.008 575.421 78.5931L575.642 77.6179L575.864 76.6428C573.158 76.0279 570.534 75.7179 567.992 75.7179V76.7179ZM575.642 77.6179L575.425 78.5941C578.044 79.176 580.702 80.1094 583.401 81.4001L583.832 80.4979L584.264 79.5958C581.442 78.2465 578.641 77.2598 575.859 76.6417L575.642 77.6179ZM583.832 80.4979L582.895 80.1482L580.375 86.8982L581.312 87.2479L582.249 87.5977L584.769 80.8477L583.832 80.4979ZM581.312 87.2479L581.718 86.3341C576.777 84.1378 572.285 83.0079 568.262 83.0079V84.0079V85.0079C571.919 85.0079 576.128 86.0381 580.906 88.1617L581.312 87.2479ZM568.262 84.0079V83.0079C563.354 83.0079 559.541 84.5941 557.026 87.9028L557.822 88.5079L558.618 89.113C560.664 86.4218 563.811 85.0079 568.262 85.0079V84.0079ZM557.822 88.5079L557.018 87.9131C554.621 91.1532 553.492 95.7174 553.492 101.468H554.492H555.492C555.492 95.9385 556.584 91.8627 558.626 89.1028L557.822 88.5079ZM554.492 101.468H553.492V114.968H554.492H555.492V101.468H554.492ZM629.219 138.818L628.267 139.125L628.491 139.818H629.219V138.818ZM624.629 124.598L625.581 124.291L625.357 123.598H624.629V124.598ZM601.409 124.598V123.598H600.681L600.457 124.291L601.409 124.598ZM596.819 138.818V139.818H597.547L597.771 139.125L596.819 138.818ZM589.169 138.818L588.22 138.503L587.783 139.818H589.169V138.818ZM609.509 77.6179V76.6179H608.787L608.56 77.3025L609.509 77.6179ZM616.889 77.6179L617.837 77.3013L617.609 76.6179H616.889V77.6179ZM637.319 138.818V139.818H638.707L638.267 138.501L637.319 138.818ZM607.079 106.958L608.03 107.267L608.033 107.258L607.079 106.958ZM603.659 117.488L602.708 117.179L602.283 118.488H603.659V117.488ZM622.289 117.488V118.488H623.665L623.24 117.179L622.289 117.488ZM618.869 106.958L617.913 107.254L617.918 107.267L618.869 106.958ZM613.019 88.0579L613.974 87.7622L613.026 84.6995L612.065 87.7581L613.019 88.0579ZM629.219 138.818L630.171 138.511L625.581 124.291L624.629 124.598L623.677 124.905L628.267 139.125L629.219 138.818ZM624.629 124.598V123.598H601.409V124.598V125.598H624.629V124.598ZM601.409 124.598L600.457 124.291L595.867 138.511L596.819 138.818L597.771 139.125L602.361 124.905L601.409 124.598ZM596.819 138.818V137.818H589.169V138.818V139.818H596.819V138.818ZM589.169 138.818L590.118 139.133L610.458 77.9333L609.509 77.6179L608.56 77.3025L588.22 138.503L589.169 138.818ZM609.509 77.6179V78.6179H616.889V77.6179V76.6179H609.509V77.6179ZM616.889 77.6179L615.94 77.9346L636.37 139.135L637.319 138.818L638.267 138.501L617.837 77.3013L616.889 77.6179ZM637.319 138.818V137.818H629.219V138.818V139.818H637.319V138.818ZM607.079 106.958L606.128 106.649L602.708 117.179L603.659 117.488L604.61 117.797L608.03 107.267L607.079 106.958ZM603.659 117.488V118.488H622.289V117.488V116.488H603.659V117.488ZM622.289 117.488L623.24 117.179L619.82 106.649L618.869 106.958L617.918 107.267L621.338 117.797L622.289 117.488ZM618.869 106.958L619.824 106.662L613.974 87.7622L613.019 88.0579L612.064 88.3536L617.914 107.254L618.869 106.958ZM613.019 88.0579L612.065 87.7581L606.125 106.658L607.079 106.958L608.033 107.258L613.973 88.3578L613.019 88.0579ZM656.592 114.878V113.878H655.592V114.878H656.592ZM656.592 138.818V139.818H657.592V138.818H656.592ZM648.762 138.818H647.762V139.818H648.762V138.818ZM648.762 77.6179V76.6179H647.762V77.6179H648.762ZM681.252 82.2079L680.552 82.9219L680.559 82.9287L680.566 82.9353L681.252 82.2079ZM683.502 107.498L682.659 106.961L682.654 106.968L682.65 106.975L683.502 107.498ZM676.482 113.348L676.101 112.423L675.008 112.873L675.634 113.877L676.482 113.348ZM683.682 125.948L682.795 126.41L682.795 126.41L683.682 125.948ZM689.802 138.818V139.818H691.322L690.721 138.422L689.802 138.818ZM680.802 138.818L679.88 139.204L680.137 139.818H680.802V138.818ZM668.832 114.878L669.696 114.373L669.406 113.878H668.832V114.878ZM656.592 84.8179V83.8179H655.592V84.8179H656.592ZM656.592 107.678H655.592V108.678H656.592V107.678ZM675.222 105.158L675.905 105.889L675.911 105.883L675.917 105.877L675.222 105.158ZM675.222 87.3379L674.54 88.069L674.547 88.0752L674.553 88.0812L675.222 87.3379ZM656.592 114.878H655.592V138.818H656.592H657.592V114.878H656.592ZM656.592 138.818V137.818H648.762V138.818V139.818H656.592V138.818ZM648.762 138.818H649.762V77.6179H648.762H647.762V138.818H648.762ZM648.762 77.6179V78.6179H667.932V77.6179V76.6179H648.762V77.6179ZM667.932 77.6179V78.6179C673.517 78.6179 677.673 80.0978 680.552 82.9219L681.252 82.2079L681.952 81.494C678.592 78.1981 673.868 76.6179 667.932 76.6179V77.6179ZM681.252 82.2079L680.566 82.9353C683.515 85.717 685.022 89.4572 685.022 94.2679H686.022H687.022C687.022 88.9986 685.35 84.6989 681.938 81.4805L681.252 82.2079ZM686.022 94.2679H685.022V98.1379H686.022H687.022V94.2679H686.022ZM686.022 98.1379H685.022C685.022 101.577 684.222 104.505 682.659 106.961L683.502 107.498L684.346 108.035C686.143 105.211 687.022 101.899 687.022 98.1379H686.022ZM683.502 107.498L682.65 106.975C681.148 109.422 678.98 111.238 676.101 112.423L676.482 113.348L676.863 114.273C680.105 112.938 682.616 110.854 684.355 108.021L683.502 107.498ZM676.482 113.348L675.634 113.877C678.2 117.995 680.587 122.173 682.795 126.41L683.682 125.948L684.569 125.486C682.337 121.203 679.924 116.98 677.331 112.819L676.482 113.348ZM683.682 125.948L682.795 126.41C685.004 130.649 687.034 134.916 688.884 139.213L689.802 138.818L690.721 138.422C688.851 134.079 686.8 129.767 684.569 125.486L683.682 125.948ZM689.802 138.818V137.818H680.802V138.818V139.818H689.802V138.818ZM680.802 138.818L681.725 138.431C678.287 130.23 674.277 122.21 669.696 114.373L668.832 114.878L667.969 115.383C672.507 123.145 676.477 131.086 679.88 139.204L680.802 138.818ZM668.832 114.878V113.878H656.592V114.878V115.878H668.832V114.878ZM667.932 84.8179V83.8179H656.592V84.8179V85.8179H667.932V84.8179ZM656.592 84.8179H655.592V107.678H656.592H657.592V84.8179H656.592ZM656.592 107.678V108.678H667.932V107.678V106.678H656.592V107.678ZM667.932 107.678V108.678C671.181 108.678 673.877 107.781 675.905 105.889L675.222 105.158L674.54 104.427C672.967 105.895 670.803 106.678 667.932 106.678V107.678ZM675.222 105.158L675.917 105.877C677.946 103.916 678.922 101.298 678.922 98.1379H677.922H676.922C676.922 100.858 676.098 102.92 674.527 104.439L675.222 105.158ZM677.922 98.1379H678.922V94.2679H677.922H676.922V98.1379H677.922ZM677.922 94.2679H678.922C678.922 91.0574 677.951 88.4481 675.891 86.5946L675.222 87.3379L674.553 88.0812C676.094 89.4677 676.922 91.4785 676.922 94.2679H677.922ZM675.222 87.3379L675.905 86.6069C673.877 84.7146 671.181 83.8179 667.932 83.8179V84.8179V85.8179C670.803 85.8179 672.967 86.6012 674.54 88.069L675.222 87.3379ZM702.815 138.818H701.815V139.818H702.815V138.818ZM702.815 77.6179V76.6179H701.815V77.6179H702.815ZM738.005 84.0079L737.257 84.6717L737.262 84.6769L738.005 84.0079ZM738.005 132.518L738.748 133.187L738.753 133.182L738.005 132.518ZM710.645 84.9979V83.9979H709.645V84.9979H710.645ZM710.645 131.528H709.645V132.528H710.645V131.528ZM702.815 138.818H703.815V77.6179H702.815H701.815V138.818H702.815ZM702.815 77.6179V78.6179H721.805V77.6179V76.6179H702.815V77.6179ZM721.805 77.6179V78.6179C728.611 78.6179 733.71 80.674 737.257 84.6716L738.005 84.0079L738.753 83.3442C734.74 78.8218 729.039 76.6179 721.805 76.6179V77.6179ZM738.005 84.0079L737.262 84.6769C740.83 88.6415 742.675 94.195 742.675 101.468H743.675H744.675C744.675 93.8608 742.74 87.7744 738.748 83.339L738.005 84.0079ZM743.675 101.468H742.675V114.878H743.675H744.675V101.468H743.675ZM743.675 114.878H742.675C742.675 122.212 740.829 127.829 737.257 131.854L738.005 132.518L738.753 133.182C742.741 128.687 744.675 122.544 744.675 114.878H743.675ZM738.005 132.518L737.262 131.849C733.716 135.789 728.615 137.818 721.805 137.818V138.818V139.818C729.034 139.818 734.734 137.647 738.748 133.187L738.005 132.518ZM721.805 138.818V137.818H702.815V138.818V139.818H721.805V138.818ZM721.625 84.9979V83.9979H710.645V84.9979V85.9979H721.625V84.9979ZM710.645 84.9979H709.645V131.528H710.645H711.645V84.9979H710.645ZM710.645 131.528V132.528H721.625V131.528V130.528H710.645V131.528ZM721.625 131.528V132.528C726.48 132.528 730.288 131.071 732.854 128.008C735.392 124.978 736.575 120.543 736.575 114.878H735.575H734.575C734.575 120.313 733.433 124.202 731.321 126.723C729.237 129.21 726.07 130.528 721.625 130.528V131.528ZM735.575 114.878H736.575V101.468H735.575H734.575V114.878H735.575ZM735.575 101.468H736.575C736.575 95.8606 735.391 91.4686 732.851 88.4691C730.283 85.4378 726.477 83.9979 721.625 83.9979V84.9979V85.9979C726.073 85.9979 729.242 87.3031 731.324 89.7617C733.434 92.2522 734.575 96.0953 734.575 101.468H735.575ZM781.36 130.268L781.982 131.051L781.988 131.046L781.995 131.04L781.36 130.268ZM782.26 116.318L781.466 116.926L781.472 116.935L781.479 116.943L782.26 116.318ZM775.42 112.178L775.709 111.221L775.704 111.219L775.42 112.178ZM768.13 110.018L767.84 110.975L767.846 110.977L768.13 110.018ZM758.05 103.808L757.256 104.416L757.262 104.424L758.05 103.808ZM756.61 84.9979L755.715 84.5507L755.711 84.5593L755.707 84.568L756.61 84.9979ZM762.55 78.9679L762.072 78.0893L762.064 78.0938L762.55 78.9679ZM781.72 77.7079L781.496 78.6827L781.506 78.6849L781.516 78.6869L781.72 77.7079ZM790.45 80.6779L791.386 81.0277L791.709 80.1643L790.875 79.7727L790.45 80.6779ZM787.93 87.4279L787.529 88.3441L788.497 88.7676L788.866 87.7777L787.93 87.4279ZM780.1 84.7279L779.845 85.695L779.86 85.6989L779.875 85.7023L780.1 84.7279ZM765.52 85.9879L766.116 86.791L766.12 86.7879L765.52 85.9879ZM764.62 98.8579L763.83 99.4719L763.836 99.4791L763.842 99.4863L764.62 98.8579ZM771.37 102.728L771.069 103.682L771.077 103.684L771.086 103.687L771.37 102.728ZM778.66 104.888L778.376 105.847L778.376 105.847L778.66 104.888ZM787.66 134.948L788.373 135.648L788.38 135.642L787.66 134.948ZM763.63 138.728L763.405 139.702L763.416 139.705L763.426 139.707L763.63 138.728ZM753.91 135.398L752.97 135.055L752.651 135.931L753.502 136.311L753.91 135.398ZM756.34 128.738L756.752 127.827L755.77 127.382L755.4 128.395L756.34 128.738ZM764.89 131.798L764.658 132.771L764.663 132.772L764.89 131.798ZM772.63 132.698V133.698C776.537 133.698 779.7 132.863 781.982 131.051L781.36 130.268L780.738 129.485C778.939 130.913 776.283 131.698 772.63 131.698V132.698ZM781.36 130.268L781.995 131.04C784.313 129.131 785.42 126.39 785.42 122.978H784.42H783.42C783.42 125.926 782.486 128.045 780.724 129.496L781.36 130.268ZM784.42 122.978H785.42C785.42 120.146 784.643 117.696 783.041 115.693L782.26 116.318L781.479 116.943C782.757 118.54 783.42 120.53 783.42 122.978H784.42ZM782.26 116.318L783.053 115.71C781.499 113.682 779 112.214 775.709 111.221L775.42 112.178L775.131 113.135C778.199 114.062 780.26 115.354 781.466 116.926L782.26 116.318ZM775.42 112.178L775.704 111.219L768.414 109.059L768.13 110.018L767.846 110.977L775.136 113.137L775.42 112.178ZM768.13 110.018L768.419 109.061C763.987 107.719 760.832 105.74 758.837 103.192L758.05 103.808L757.262 104.424C759.587 107.395 763.152 109.556 767.84 110.975L768.13 110.018ZM758.05 103.808L758.844 103.2C756.837 100.58 755.81 97.3522 755.81 93.4579H754.81H753.81C753.81 97.7236 754.943 101.396 757.256 104.416L758.05 103.808ZM754.81 93.4579H755.81C755.81 90.469 756.384 87.7985 757.513 85.4279L756.61 84.9979L755.707 84.568C754.436 87.2374 753.81 90.2068 753.81 93.4579H754.81ZM756.61 84.9979L757.504 85.4451C758.665 83.1227 760.494 81.2541 763.035 79.8421L762.55 78.9679L762.064 78.0938C759.206 79.6818 757.074 81.8331 755.715 84.5507L756.61 84.9979ZM762.55 78.9679L763.027 79.8466C765.593 78.4523 769.011 77.7179 773.35 77.7179V76.7179V75.7179C768.808 75.7179 765.027 76.4835 762.072 78.0893L762.55 78.9679ZM773.35 76.7179V77.7179C775.968 77.7179 778.683 78.0379 781.496 78.6827L781.72 77.7079L781.943 76.7332C778.997 76.058 776.132 75.7179 773.35 75.7179V76.7179ZM781.72 77.7079L781.516 78.6869C784.312 79.2695 787.148 80.2329 790.025 81.5832L790.45 80.6779L790.875 79.7727C787.871 78.363 784.887 77.3464 781.924 76.7289L781.72 77.7079ZM790.45 80.6779L789.513 80.3282L786.993 87.0782L787.93 87.4279L788.866 87.7777L791.386 81.0277L790.45 80.6779ZM787.93 87.4279L788.33 86.5118C785.41 85.2341 782.74 84.311 780.325 83.7535L780.1 84.7279L779.875 85.7023C782.139 86.2249 784.689 87.1018 787.529 88.3441L787.93 87.4279ZM780.1 84.7279L780.354 83.7609C778.001 83.1416 775.725 82.8279 773.53 82.8279V83.8279V84.8279C775.534 84.8279 777.638 85.1142 779.845 85.695L780.1 84.7279ZM773.53 83.8279V82.8279C769.982 82.8279 767.073 83.5732 764.92 85.1879L765.52 85.9879L766.12 86.7879C767.807 85.5226 770.237 84.8279 773.53 84.8279V83.8279ZM765.52 85.9879L764.924 85.1848C762.718 86.8215 761.73 89.4962 761.73 92.9179H762.73H763.73C763.73 89.8597 764.601 87.9144 766.115 86.791L765.52 85.9879ZM762.73 92.9179H761.73C761.73 95.4476 762.415 97.6522 763.83 99.4719L764.62 98.8579L765.409 98.244C764.304 96.8237 763.73 95.0683 763.73 92.9179H762.73ZM764.62 98.8579L763.842 99.4863C765.285 101.273 767.758 102.639 771.069 103.682L771.37 102.728L771.67 101.774C768.501 100.777 766.475 99.5632 765.398 98.2296L764.62 98.8579ZM771.37 102.728L771.086 103.687L778.376 105.847L778.66 104.888L778.944 103.929L771.654 101.769L771.37 102.728ZM778.66 104.888L778.376 105.847C782.794 107.155 786.013 109.19 788.132 111.895C790.248 114.594 791.34 118.053 791.34 122.348H792.34H793.34C793.34 117.703 792.152 113.782 789.707 110.661C787.266 107.546 783.646 105.321 778.944 103.929L778.66 104.888ZM792.34 122.348H791.34C791.34 127.29 789.853 131.228 786.939 134.254L787.66 134.948L788.38 135.642C791.706 132.188 793.34 127.726 793.34 122.348H792.34ZM787.66 134.948L786.946 134.248C784.095 137.153 779.405 138.718 772.63 138.718V139.718V140.718C779.654 140.718 784.984 139.103 788.373 135.648L787.66 134.948ZM772.63 139.718V138.718C769.887 138.718 766.956 138.397 763.833 137.749L763.63 138.728L763.426 139.707C766.663 140.379 769.732 140.718 772.63 140.718V139.718ZM763.63 138.728L763.855 137.754C760.806 137.05 757.627 135.962 754.317 134.485L753.91 135.398L753.502 136.311C756.912 137.834 760.214 138.966 763.405 139.702L763.63 138.728ZM753.91 135.398L754.849 135.741L757.279 129.081L756.34 128.738L755.4 128.395L752.97 135.055L753.91 135.398ZM756.34 128.738L755.927 129.649C759.147 131.107 762.059 132.152 764.658 132.771L764.89 131.798L765.121 130.825C762.681 130.244 759.893 129.249 756.752 127.827L756.34 128.738ZM764.89 131.798L764.663 132.772C767.315 133.389 769.971 133.698 772.63 133.698V132.698V131.698C770.128 131.698 767.624 131.407 765.116 130.824L764.89 131.798Z" fill="white" mask="url(#path-8-outside-1_44_2)"/>
</svg>
